<svg width="279" height="39" viewBox="0 0 279 39" fill="none" xmlns="http://www.w3.org/2000/svg">
<path fill-rule="evenodd" clip-rule="evenodd" d="M278.999 31.5631H0.925293V38.8695H278.999V31.5631ZM163.376 37.0335V35.4347L162.855 37.0335H162.129V34.0818H162.855V35.6806L163.376 34.0818H164.102V37.0335H163.376ZM163.119 33.9787H163.099C162.911 33.9787 162.757 33.9456 162.637 33.8795C162.521 33.8134 162.464 33.7221 162.464 33.6058V33.582H162.958V33.5978C162.958 33.6692 163.007 33.7049 163.106 33.7049H163.112C163.215 33.7049 163.267 33.6692 163.267 33.5978V33.582H163.755V33.6058C163.755 33.7221 163.693 33.8134 163.568 33.8795C163.444 33.9456 163.294 33.9787 163.119 33.9787ZM7.37282 34.0818V37.0335H8.56771C8.82896 37.0335 9.02168 36.9859 9.14588 36.8907C9.27437 36.7928 9.33861 36.6606 9.33861 36.4939V35.8552C9.33861 35.633 9.19942 35.4889 8.92104 35.4228C9.16087 35.3672 9.28079 35.231 9.28079 35.0141V34.5619C9.28079 34.4058 9.22297 34.2868 9.10734 34.2048C8.99599 34.1228 8.79898 34.0818 8.51632 34.0818H7.37282ZM8.09875 35.6886H8.31717C8.42852 35.6886 8.50347 35.7045 8.54202 35.7362C8.58056 35.7653 8.59983 35.8129 8.59983 35.879V36.4186C8.59983 36.4873 8.58056 36.5376 8.54202 36.5693C8.50347 36.6011 8.42852 36.6169 8.31717 36.6169H8.09875V35.6886ZM8.09875 34.4825H8.31717C8.41139 34.4825 8.47563 34.4971 8.50989 34.5262C8.54844 34.5553 8.56771 34.6029 8.56771 34.669V35.0419C8.56771 35.1794 8.4842 35.2482 8.31717 35.2482H8.09875V34.4825ZM22.4362 36.4781L22.5326 37.0335H23.2328L22.6097 34.0818H21.7489L21.1643 37.0335H21.8131L21.903 36.4781H22.4362ZM21.9801 36.0377L22.1664 34.9467L22.3592 36.0377H21.9801ZM35.0944 37.0335V34.0818H35.8203V36.5852H36.2314V34.0818H36.9574V36.5852H37.3685V34.0818H38.0944V37.0335H35.0944ZM63.2536 37.0335V35.7362H63.7482V37.0335H64.4742V34.0818H63.7482V35.2641H63.2536V34.0818H62.5277V37.0335H63.2536ZM77.7254 37.0335L77.629 36.4781H77.0958L77.0059 37.0335H76.357L76.9416 34.0818H77.8025L78.4256 37.0335H77.7254ZM77.3592 34.9467L77.1729 36.0377H77.5519L77.3592 34.9467ZM92.1365 37.0335V37.4501H92.7982V36.5852H92.477V34.0818H90.6526C90.6526 35.2376 90.6205 35.9478 90.5562 36.2123C90.5177 36.3577 90.4577 36.482 90.3763 36.5852H90.2157V37.4501H90.8774V37.0335H92.1365ZM91.0958 36.5852C91.1644 36.4741 91.2115 36.3538 91.2372 36.2242C91.3014 35.9438 91.3335 35.3725 91.3335 34.5103H91.7511V36.5852H91.0958ZM104.735 34.0818H106.386V34.5103H105.461V35.2839H106.187V35.7322H105.461V36.5852H106.424V37.0335H104.735V34.0818ZM119.453 35.6965V37.0335H120.179V35.6965L120.75 37.0335H121.463L120.776 35.4545L121.393 34.0818H120.718L120.179 35.3157V34.0818H119.453V35.3157L118.913 34.0818H118.232L118.862 35.4783L118.181 37.0335H118.881L119.453 35.6965ZM134.042 35.7362V37.0335H133.316V34.0818H134.042V35.2641H134.537V34.0818H135.262V37.0335H134.537V35.7362H134.042ZM148.437 35.2244H148.013V34.0818H147.287V37.0335H148.437C148.694 37.0335 148.882 36.9925 149.002 36.9105C149.122 36.8259 149.182 36.695 149.182 36.5177V35.7679C149.182 35.4056 148.933 35.2244 148.437 35.2244ZM148.199 36.605H148.013V35.6529H148.199C148.302 35.6529 148.368 35.6714 148.398 35.7084C148.432 35.7428 148.449 35.7957 148.449 35.8671V36.4027C148.449 36.4688 148.432 36.5191 148.398 36.5535C148.364 36.5878 148.297 36.605 148.199 36.605ZM150.113 37.0335V34.0818H149.387V37.0335H150.113ZM188.534 34.0818V37.0335H189.26V34.5103H189.703V37.0335H190.429V34.0818H188.534ZM203.681 37.0335L203.585 36.4781H203.052L202.962 37.0335H202.313L202.898 34.0818H203.758L204.382 37.0335H203.681ZM203.315 34.9467L203.129 36.0377H203.508L203.315 34.9467ZM216.982 35.8076H217.406C217.903 35.8076 218.151 35.6278 218.151 35.268V34.5698C218.151 34.3952 218.091 34.2709 217.971 34.1969C217.856 34.1202 217.667 34.0818 217.406 34.0818H216.256V37.0335H216.982V35.8076ZM216.982 35.3831V34.4825H217.168C217.267 34.4825 217.333 34.4997 217.367 34.5341C217.402 34.5685 217.419 34.6187 217.419 34.6849V35.1689C217.419 35.2403 217.402 35.2945 217.367 35.3315C217.337 35.3659 217.271 35.3831 217.168 35.3831H216.982ZM230.036 34.0818H231.976V34.5103H231.366V37.0335H230.647V34.5103H230.036V34.0818ZM244.628 37.0335V35.7362H245.123V37.0335H245.849V34.0818H245.123V35.2641H244.628V34.0818H243.902V37.0335H244.628ZM257.886 34.0818H259.537V34.5103H258.612V35.2839H259.338V35.7322H258.612V36.5852H259.575V37.0335H257.886V34.0818ZM272.244 35.8076H272.668C273.164 35.8076 273.413 35.6278 273.413 35.268V34.5698C273.413 34.3952 273.353 34.2709 273.233 34.1969C273.117 34.1202 272.929 34.0818 272.668 34.0818H271.518V37.0335H272.244V35.8076ZM272.244 35.3831V34.4825H272.43C272.529 34.4825 272.595 34.4997 272.629 34.5341C272.663 34.5685 272.681 34.6187 272.681 34.6849V35.1689C272.681 35.2403 272.663 35.2945 272.629 35.3315C272.599 35.3659 272.533 35.3831 272.43 35.3831H272.244Z" fill="#CACACA"/>
<path d="M12.0727 23.5121V17.8689H17.893V23.4795C17.893 26.9807 15.5334 28.7313 10.8142 28.7313H9.50334C4.64434 28.7313 2.21484 27.0242 2.21484 23.61V8.8005C2.21484 7.40872 2.77415 6.25615 3.89277 5.34279C5.01139 4.40768 6.81167 3.94013 9.2936 3.94013H10.6569C12.195 3.94013 13.4709 4.08148 14.4847 4.36419C15.5334 4.64689 16.285 5.06008 16.7394 5.60374C17.1938 6.14741 17.491 6.6802 17.6308 7.20212C17.8056 7.7023 17.893 8.30033 17.893 8.99622V13.3347H12.0727V9.06146C12.0727 7.99588 11.4085 7.46308 10.0801 7.46308C9.381 7.46308 8.8916 7.59356 8.61194 7.85452C8.36725 8.09374 8.2449 8.49605 8.2449 9.06146V23.4795C8.2449 24.5886 8.87412 25.1431 10.1326 25.1431C11.426 25.1431 12.0727 24.5994 12.0727 23.5121Z" fill="#CACACA"/>
<path d="M29.8499 28.4377V15.2919L25.6026 28.4377H19.6774V4.16847H25.6026V17.3143L29.8499 4.16847H35.775V28.4377H29.8499Z" fill="#CACACA"/>
<path d="M37.9581 28.4377V4.16847H52.2729V7.69142H43.8833V13.563H47.344C51.399 13.563 53.4265 15.0527 53.4265 18.032V24.1971C53.4265 25.6542 52.9371 26.7306 51.9583 27.4265C50.9795 28.1007 49.4414 28.4377 47.344 28.4377H37.9581ZM43.8833 24.9148H45.4039C46.2079 24.9148 46.7497 24.7734 47.0294 24.4907C47.309 24.208 47.4489 23.7948 47.4489 23.2511V18.8475C47.4489 18.2603 47.309 17.8254 47.0294 17.5427C46.7847 17.2382 46.2428 17.086 45.4039 17.086H43.8833V24.9148Z" fill="#CACACA"/>
<path d="M65.4382 28.4377V15.2919L61.191 28.4377H55.2658V4.16847H61.191V17.3143L65.4382 4.16847H71.3634V28.4377H65.4382Z" fill="#CACACA"/>
<path d="M83.0372 18.3582H79.5765V28.4377H73.6513V4.16847H83.0372C85.1696 4.16847 86.7077 4.48379 87.6515 5.11445C88.6303 5.72335 89.1197 6.74544 89.1197 8.18072V13.9218C89.1197 16.8794 87.0922 18.3582 83.0372 18.3582ZM79.5765 7.46308V14.8678H81.0971C81.9361 14.8678 82.4779 14.7265 82.7226 14.4438C83.0023 14.1393 83.1421 13.6935 83.1421 13.1063V9.1267C83.1421 8.58304 83.0023 8.16985 82.7226 7.88714C82.443 7.60444 81.9011 7.46308 81.0971 7.46308H79.5765Z" fill="#CACACA"/>
<path d="M96.7282 13.563H100.189C104.244 13.563 106.271 15.0527 106.271 18.032V24.1971C106.271 25.6542 105.782 26.7306 104.803 27.4265C103.824 28.1007 102.286 28.4377 100.189 28.4377H90.803V4.16847H96.7282V13.563ZM96.7282 24.9148H98.2488C99.0528 24.9148 99.5946 24.7734 99.8743 24.4907C100.154 24.208 100.294 23.7948 100.294 23.2511V18.8475C100.294 18.2603 100.154 17.8254 99.8743 17.5427C99.6296 17.2382 99.0877 17.086 98.2488 17.086H96.7282V24.9148Z" fill="#CACACA"/>
<path d="M122.741 4.16847L117.078 25.241C116.764 26.437 116.274 27.2743 115.61 27.7527C114.946 28.2094 113.862 28.4377 112.359 28.4377H108.531V24.6864H109.895C110.209 24.6864 110.454 24.6538 110.629 24.5886C110.839 24.5233 110.978 24.4363 111.048 24.3276C111.118 24.2189 111.188 24.0775 111.258 23.9035L111.415 23.1533C111.52 22.7618 111.45 22.1094 111.206 21.1961L106.801 4.16847H112.831L115.033 14.9004L117.131 4.16847H122.741Z" fill="#CACACA"/>
<path d="M123.677 28.4377V4.16847H135.58V7.69142H129.603V28.4377H123.677Z" fill="#CACACA"/>
<path d="M153.192 9.48552V23.0228C153.192 26.8285 150.675 28.7313 145.642 28.7313H144.645C139.542 28.7313 136.99 26.8285 136.99 23.0228V9.51814C136.99 5.79946 139.524 3.94013 144.593 3.94013H145.589C148.316 3.94013 150.256 4.41855 151.41 5.37541C152.598 6.33226 153.192 7.7023 153.192 9.48552ZM147.162 23.2838V9.32242C147.162 8.08286 146.481 7.46308 145.117 7.46308C143.719 7.46308 143.02 8.08286 143.02 9.32242V23.2838C143.02 24.5233 143.736 25.1431 145.17 25.1431C146.498 25.1431 147.162 24.5233 147.162 23.2838Z" fill="#CACACA"/>
<path d="M165.92 28.4377V7.69142H162.459C162.459 16.3683 162.284 22.0116 161.935 24.6212C161.795 25.926 161.253 26.8937 160.309 27.5244C159.4 28.1333 157.88 28.4377 155.747 28.4377H154.279V24.6864H154.699C155.363 24.6864 155.817 24.5668 156.062 24.3276C156.307 24.0884 156.464 23.6643 156.534 23.0554C156.779 21.5984 156.901 15.3027 156.901 4.16847H171.845V28.4377H165.92Z" fill="#CACACA"/>
<path d="M179.99 13.563H183.45C187.505 13.563 189.533 15.0527 189.533 18.032V24.1971C189.533 25.6542 189.043 26.7306 188.065 27.4265C187.086 28.1007 185.548 28.4377 183.45 28.4377H174.064V4.16847H179.99V13.563ZM179.99 24.9148H181.51C182.314 24.9148 182.856 24.7734 183.136 24.4907C183.415 24.208 183.555 23.7948 183.555 23.2511V18.8475C183.555 18.2603 183.415 17.8254 183.136 17.5427C182.891 17.2382 182.349 17.086 181.51 17.086H179.99V24.9148Z" fill="#CACACA"/>
<path d="M190.692 4.16847H206.527V7.69142H201.546V28.4377H195.673V7.69142H190.692V4.16847Z" fill="#CACACA"/>
<path d="M217.403 18.3582H213.942V28.4377H208.017V4.16847H217.403C219.535 4.16847 221.073 4.48379 222.017 5.11445C222.996 5.72335 223.485 6.74544 223.485 8.18072V13.9218C223.485 16.8794 221.458 18.3582 217.403 18.3582ZM213.942 7.46308V14.8678H215.462C216.301 14.8678 216.843 14.7265 217.088 14.4438C217.368 14.1393 217.507 13.6935 217.507 13.1063V9.1267C217.507 8.58304 217.368 8.16985 217.088 7.88714C216.808 7.60444 216.266 7.46308 215.462 7.46308H213.942Z" fill="#CACACA"/>
<path d="M225.273 4.16847H238.749V7.69142H231.198V14.0523H237.124V17.7384H231.198V24.7517H239.064V28.4377H225.273V4.16847Z" fill="#CACACA"/>
<path d="M250.651 28.4377V15.2919L246.404 28.4377H240.479V4.16847H246.404V17.3143L250.651 4.16847H256.577V28.4377H250.651ZM248.554 3.32035H248.397C246.859 3.32035 245.6 3.04851 244.621 2.50485C243.678 1.96118 243.206 1.21092 243.206 0.254071V0.0583496H247.243V0.18883C247.243 0.775989 247.645 1.06957 248.449 1.06957H248.502C249.341 1.06957 249.76 0.775989 249.76 0.18883V0.0583496H253.745V0.254071C253.745 1.21092 253.238 1.96118 252.224 2.50485C251.211 3.04851 249.987 3.32035 248.554 3.32035Z" fill="#CACACA"/>
<path d="M273.599 31.8628V28.4377H263.322V31.8628H257.921V24.7517H259.232C259.896 23.9035 260.385 22.8815 260.7 21.6854C261.224 19.5107 261.486 13.6718 261.486 4.16847H276.378V24.7517H279V31.8628H273.599ZM266.258 21.7832C266.048 22.8488 265.664 23.8383 265.104 24.7517H270.453V7.69142H267.044C267.044 14.7808 266.782 19.4781 266.258 21.7832Z" fill="#CACACA"/>
</svg>
