<svg width="364" height="52" viewBox="0 0 364 52" fill="none" xmlns="http://www.w3.org/2000/svg">
<path fill-rule="evenodd" clip-rule="evenodd" d="M364 41.7271H0.551758V51.2767H364V41.7271ZM212.877 48.8769V46.7873L212.197 48.8769H211.248V45.0191H212.197V47.1087L212.877 45.0191H213.826V48.8769H212.877ZM212.541 44.8842H212.516C212.269 44.8842 212.068 44.841 211.911 44.7546C211.76 44.6682 211.685 44.5489 211.685 44.3968V44.3657H212.331V44.3864C212.331 44.4798 212.395 44.5264 212.524 44.5264H212.533C212.667 44.5264 212.734 44.4798 212.734 44.3864V44.3657H213.372V44.3968C213.372 44.5489 213.291 44.6682 213.129 44.7546C212.966 44.841 212.77 44.8842 212.541 44.8842ZM8.9783 45.0191V48.8769H10.54C10.8815 48.8769 11.1334 48.8147 11.2957 48.6903C11.4636 48.5624 11.5476 48.3895 11.5476 48.1717V47.3369C11.5476 47.0465 11.3657 46.8581 11.0018 46.7717C11.3153 46.6991 11.472 46.5211 11.472 46.2376V45.6465C11.472 45.4425 11.3965 45.287 11.2453 45.1798C11.0998 45.0726 10.8423 45.0191 10.4729 45.0191H8.9783ZM9.9271 47.1191H10.2126C10.3581 47.1191 10.4561 47.1399 10.5065 47.1813C10.5568 47.2194 10.582 47.2816 10.582 47.368V48.0732C10.582 48.1631 10.5568 48.2288 10.5065 48.2703C10.4561 48.3117 10.3581 48.3325 10.2126 48.3325H9.9271V47.1191ZM9.9271 45.5428H10.2126C10.3357 45.5428 10.4197 45.5618 10.4645 45.5998C10.5149 45.6378 10.54 45.7001 10.54 45.7865V46.2739C10.54 46.4537 10.4309 46.5435 10.2126 46.5435H9.9271V45.5428ZM28.6665 48.151L28.7924 48.8769H29.7076L28.8932 45.0191H27.768L27.004 48.8769H27.852L27.9696 48.151H28.6665ZM28.0703 47.5754L28.3138 46.1495L28.5657 47.5754H28.0703ZM45.2109 48.8769V45.0191H46.1597V48.291H46.697V45.0191H47.6458V48.291H48.1832V45.0191H49.132V48.8769H45.2109ZM82.0154 48.8769V47.1813H82.662V48.8769H83.6108V45.0191H82.662V46.5643H82.0154V45.0191H81.0666V48.8769H82.0154ZM100.93 48.8769L100.804 48.151H100.107L99.9899 48.8769H99.1419L99.906 45.0191H101.031L101.846 48.8769H100.93ZM100.452 46.1495L100.208 47.5754H100.704L100.452 46.1495ZM119.766 48.8769V49.4214H120.631V48.291H120.211V45.0191H117.826C117.826 46.5297 117.784 47.4579 117.7 47.8036C117.65 47.9937 117.572 48.1562 117.465 48.291H117.255V49.4214H118.12V48.8769H119.766ZM118.406 48.291C118.495 48.1458 118.557 47.9885 118.59 47.8191C118.674 47.4527 118.716 46.706 118.716 45.5791H119.262V48.291H118.406ZM136.232 45.0191H138.39V45.5791H137.181V46.5902H138.13V47.1761H137.181V48.291H138.441V48.8769H136.232V45.0191ZM155.469 47.1295V48.8769H156.417V47.1295L157.165 48.8769H158.097L157.198 46.8132L158.004 45.0191H157.123L156.417 46.6317V45.0191H155.469V46.6317L154.763 45.0191H153.873L154.696 46.8443L153.806 48.8769H154.721L155.469 47.1295ZM174.537 47.1813V48.8769H173.588V45.0191H174.537V46.5643H175.184V45.0191H176.132V48.8769H175.184V47.1813H174.537ZM193.351 46.5124H192.797V45.0191H191.848V48.8769H193.351C193.687 48.8769 193.933 48.8234 194.09 48.7162C194.247 48.6056 194.325 48.4345 194.325 48.2028V47.2228C194.325 46.7492 194.001 46.5124 193.351 46.5124ZM193.04 48.3169H192.797V47.0724H193.04C193.175 47.0724 193.262 47.0966 193.301 47.145C193.346 47.19 193.368 47.2591 193.368 47.3525V48.0525C193.368 48.1389 193.346 48.2046 193.301 48.2495C193.256 48.2945 193.169 48.3169 193.04 48.3169ZM195.543 48.8769V45.0191H194.594V48.8769H195.543ZM245.759 45.0191V48.8769H246.708V45.5791H247.287V48.8769H248.236V45.0191H245.759ZM265.557 48.8769L265.431 48.151H264.734L264.617 48.8769H263.769L264.533 45.0191H265.658L266.472 48.8769H265.557ZM265.078 46.1495L264.835 47.5754H265.33L265.078 46.1495ZM282.941 47.2747H283.495C284.145 47.2747 284.469 47.0396 284.469 46.5695V45.6568C284.469 45.4287 284.391 45.2662 284.234 45.1694C284.083 45.0692 283.837 45.0191 283.495 45.0191H281.992V48.8769H282.941V47.2747ZM282.941 46.7198V45.5428H283.185C283.313 45.5428 283.4 45.5652 283.445 45.6102C283.49 45.6551 283.512 45.7208 283.512 45.8072V46.4398C283.512 46.5332 283.49 46.604 283.445 46.6524C283.406 46.6974 283.319 46.7198 283.185 46.7198H282.941ZM300.004 45.0191H302.539V45.5791H301.742V48.8769H300.801V45.5791H300.004V45.0191ZM319.075 48.8769V47.1813H319.722V48.8769H320.671V45.0191H319.722V46.5643H319.075V45.0191H318.126V48.8769H319.075ZM336.403 45.0191H338.561V45.5791H337.352V46.5902H338.301V47.1761H337.352V48.291H338.612V48.8769H336.403V45.0191ZM355.169 47.2747H355.723C356.373 47.2747 356.697 47.0396 356.697 46.5695V45.6568C356.697 45.4287 356.619 45.2662 356.462 45.1694C356.311 45.0692 356.065 45.0191 355.723 45.0191H354.22V48.8769H355.169V47.2747ZM355.169 46.7198V45.5428H355.413C355.541 45.5428 355.628 45.5652 355.673 45.6102C355.718 45.6551 355.74 45.7208 355.74 45.8072V46.4398C355.74 46.5332 355.718 46.604 355.673 46.6524C355.634 46.6974 355.547 46.7198 355.413 46.7198H355.169Z" fill="#474747"/>
<path d="M15.1217 31.2043V23.8284H22.7289V31.1616C22.7289 35.7378 19.6449 38.0259 13.4768 38.0259H11.7635C5.4127 38.0259 2.2373 35.7946 2.2373 31.3322V11.976C2.2373 10.1569 2.96833 8.65043 4.43039 7.45666C5.89244 6.23446 8.24543 5.62335 11.4894 5.62335H13.2712C15.2816 5.62335 16.9492 5.80811 18.2742 6.17761C19.6449 6.54711 20.6272 7.08715 21.2212 7.79773C21.8151 8.50832 22.2035 9.20469 22.3862 9.88684C22.6147 10.5406 22.7289 11.3222 22.7289 12.2318V17.9022H15.1217V12.317C15.1217 10.9243 14.2536 10.2279 12.5174 10.2279C11.6036 10.2279 10.9639 10.3985 10.5984 10.7395C10.2786 11.0522 10.1187 11.578 10.1187 12.317V31.1616C10.1187 32.6112 10.9411 33.336 12.5859 33.336C14.2764 33.336 15.1217 32.6254 15.1217 31.2043Z" fill="#474747"/>
<path d="M38.3568 37.6421V20.4603L32.8055 37.6421H25.0612V5.9218H32.8055V23.1037L38.3568 5.9218H46.1011V37.6421H38.3568Z" fill="#474747"/>
<path d="M48.9543 37.6421V5.9218H67.6641V10.5264H56.6987V18.2006H61.2219C66.5218 18.2006 69.1718 20.1476 69.1718 24.0416V32.0996C69.1718 34.004 68.5322 35.4109 67.2529 36.3205C65.9736 37.2016 63.9632 37.6421 61.2219 37.6421H48.9543ZM56.6987 33.0376H58.6861C59.737 33.0376 60.4452 32.8528 60.8107 32.4833C61.1762 32.1138 61.359 31.5738 61.359 30.8632V25.1075C61.359 24.3401 61.1762 23.7716 60.8107 23.4021C60.4909 23.0042 59.7827 22.8052 58.6861 22.8052H56.6987V33.0376Z" fill="#474747"/>
<path d="M84.8714 37.6421V20.4603L79.3202 37.6421H71.5758V5.9218H79.3202V23.1037L84.8714 5.9218H92.6157V37.6421H84.8714Z" fill="#474747"/>
<path d="M107.874 24.468H103.35V37.6421H95.606V5.9218H107.874C110.661 5.9218 112.671 6.33394 113.905 7.15821C115.184 7.95406 115.824 9.28995 115.824 11.1659V18.6696C115.824 22.5352 113.174 24.468 107.874 24.468ZM103.35 10.2279V19.906H105.338C106.434 19.906 107.143 19.7213 107.462 19.3518C107.828 18.9539 108.011 18.3712 108.011 17.6038V12.4023C108.011 11.6917 107.828 11.1517 107.462 10.7822C107.097 10.4127 106.389 10.2279 105.338 10.2279H103.35Z" fill="#474747"/>
<path d="M125.768 18.2006H130.291C135.591 18.2006 138.241 20.1476 138.241 24.0416V32.0996C138.241 34.004 137.601 35.4109 136.322 36.3205C135.043 37.2016 133.032 37.6421 130.291 37.6421H118.024V5.9218H125.768V18.2006ZM125.768 33.0376H127.755C128.806 33.0376 129.514 32.8528 129.88 32.4833C130.245 32.1138 130.428 31.5738 130.428 30.8632V25.1075C130.428 24.3401 130.245 23.7716 129.88 23.4021C129.56 23.0042 128.852 22.8052 127.755 22.8052H125.768V33.0376Z" fill="#474747"/>
<path d="M159.768 5.9218L152.366 33.4639C151.955 35.0272 151.315 36.1215 150.447 36.7468C149.579 37.3437 148.163 37.6421 146.198 37.6421H141.195V32.7391H142.977C143.388 32.7391 143.708 32.6965 143.936 32.6112C144.21 32.526 144.393 32.4123 144.485 32.2701C144.576 32.128 144.667 31.9433 144.759 31.7159L144.964 30.7353C145.101 30.2237 145.01 29.371 144.69 28.1772L138.933 5.9218H146.815L149.693 19.9487L152.434 5.9218H159.768Z" fill="#474747"/>
<path d="M160.991 37.6421V5.9218H176.548V10.5264H168.735V37.6421H160.991Z" fill="#474747"/>
<path d="M199.568 12.8713V30.5648C199.568 35.5388 196.278 38.0259 189.699 38.0259H188.397C181.726 38.0259 178.391 35.5388 178.391 30.5648V12.9139C178.391 8.05354 181.703 5.62335 188.328 5.62335H189.63C193.194 5.62335 195.73 6.24867 197.237 7.49929C198.791 8.74991 199.568 10.5406 199.568 12.8713ZM191.686 30.9058V12.6581C191.686 11.038 190.795 10.2279 189.013 10.2279C187.186 10.2279 186.272 11.038 186.272 12.6581V30.9058C186.272 32.526 187.209 33.336 189.082 33.336C190.818 33.336 191.686 32.526 191.686 30.9058Z" fill="#474747"/>
<path d="M216.202 37.6421V10.5264H211.679C211.679 21.8672 211.451 29.2431 210.994 32.6539C210.811 34.3593 210.103 35.6241 208.869 36.4484C207.681 37.2442 205.694 37.6421 202.907 37.6421H200.988V32.7391H201.536C202.404 32.7391 202.998 32.5828 203.318 32.2701C203.638 31.9575 203.844 31.4032 203.935 30.6074C204.255 28.703 204.415 20.4745 204.415 5.9218H223.947V37.6421H216.202Z" fill="#474747"/>
<path d="M234.592 18.2006H239.115C244.415 18.2006 247.065 20.1476 247.065 24.0416V32.0996C247.065 34.004 246.426 35.4109 245.146 36.3205C243.867 37.2016 241.857 37.6421 239.115 37.6421H226.848V5.9218H234.592V18.2006ZM234.592 33.0376H236.58C237.63 33.0376 238.339 32.8528 238.704 32.4833C239.07 32.1138 239.252 31.5738 239.252 30.8632V25.1075C239.252 24.3401 239.07 23.7716 238.704 23.4021C238.384 23.0042 237.676 22.8052 236.58 22.8052H234.592V33.0376Z" fill="#474747"/>
<path d="M248.58 5.9218H269.277V10.5264H262.766V37.6421H255.091V10.5264H248.58V5.9218Z" fill="#474747"/>
<path d="M283.491 24.468H278.968V37.6421H271.224V5.9218H283.491C286.278 5.9218 288.289 6.33394 289.522 7.15821C290.802 7.95406 291.441 9.28995 291.441 11.1659V18.6696C291.441 22.5352 288.791 24.468 283.491 24.468ZM278.968 10.2279V19.906H280.956C282.052 19.906 282.76 19.7213 283.08 19.3518C283.446 18.9539 283.629 18.3712 283.629 17.6038V12.4023C283.629 11.6917 283.446 11.1517 283.08 10.7822C282.715 10.4127 282.007 10.2279 280.956 10.2279H278.968Z" fill="#474747"/>
<path d="M293.778 5.9218H311.392V10.5264H301.523V18.8402H309.267V23.6579H301.523V32.8244H311.803V37.6421H293.778V5.9218Z" fill="#474747"/>
<path d="M326.948 37.6421V20.4603L321.397 37.6421H313.653V5.9218H321.397V23.1037L326.948 5.9218H334.693V37.6421H326.948ZM324.207 4.81329H324.001C321.991 4.81329 320.346 4.458 319.067 3.74742C317.833 3.03684 317.216 2.05624 317.216 0.805616V0.549805H322.494V0.720345C322.494 1.48777 323.019 1.87149 324.07 1.87149H324.138C325.235 1.87149 325.783 1.48777 325.783 0.720345V0.549805H330.992V0.805616C330.992 2.05624 330.329 3.03684 329.004 3.74742C327.679 4.458 326.08 4.81329 324.207 4.81329Z" fill="#474747"/>
<path d="M356.941 42.1188V37.6421H343.508V42.1188H336.449V32.8244H338.163C339.031 31.7159 339.67 30.38 340.082 28.8167C340.767 25.9744 341.11 18.3428 341.11 5.9218H360.573V32.8244H364V42.1188H356.941ZM347.346 28.9446C347.072 30.3374 346.569 31.6306 345.838 32.8244H352.829V10.5264H348.374C348.374 19.7923 348.032 25.9318 347.346 28.9446Z" fill="#474747"/>
</svg>
